<svg width="375" height="750" viewBox="0 0 375 750" fill="none" xmlns="http://www.w3.org/2000/svg">
<mask id="mask0" mask-type="alpha" maskUnits="userSpaceOnUse" x="0" y="0" width="375" height="750">
<rect width="375" height="750" fill="#C4C4C4"/>
</mask>
<g mask="url(#mask0)">
<path d="M146.4 315.2C146.4 310.133 147.467 305.333 149.6 300.8C151.733 296.267 154.667 292.333 158.4 289C162.267 285.533 166.733 282.867 171.8 281C177 279 182.667 278 188.8 278C193.2 278 197.267 278.467 201 279.4C204.867 280.2 208.333 281.333 211.4 282.8C214.6 284.133 217.4 285.6 219.8 287.2C222.333 288.8 224.533 290.4 226.4 292L214.6 306.6C207 300.2 198.667 297 189.6 297C186.667 297 183.8 297.4 181 298.2C178.333 298.867 175.867 299.933 173.6 301.4C171.467 302.867 169.733 304.733 168.4 307C167.067 309.133 166.4 311.667 166.4 314.6C166.4 318.467 167.933 321.6 171 324C174.067 326.4 177.933 328.6 182.6 330.6C187.267 332.6 192.4 334.6 198 336.6C203.6 338.467 208.933 340.8 214 343.6C220 346.8 225 351 229 356.2C233 361.4 235 367.867 235 375.6C235 382 233.267 388.133 229.8 394C226.467 399.733 222.267 404.467 217.2 408.2C219.733 410.867 221.733 413.867 223.2 417.2C224.8 420.533 225.6 424.4 225.6 428.8C225.6 433.867 224.533 438.667 222.4 443.2C220.267 447.733 217.267 451.667 213.4 455C209.667 458.467 205.2 461.133 200 463C194.933 465 189.333 466 183.2 466C178.8 466 174.667 465.533 170.8 464.6C167.067 463.8 163.6 462.667 160.4 461.2C157.333 459.867 154.533 458.4 152 456.8C149.6 455.2 147.467 453.6 145.6 452L157.4 437.4C165 443.8 173.333 447 182.4 447C185.333 447 188.133 446.6 190.8 445.8C193.6 445.133 196.067 444.067 198.2 442.6C200.467 441.133 202.267 439.267 203.6 437C204.933 434.867 205.6 432.333 205.6 429.4C205.6 425.667 204.067 422.533 201 420C197.933 417.6 194.067 415.4 189.4 413.4C184.733 411.4 179.6 409.467 174 407.6C168.4 405.6 163.067 403.2 158 400.4C152 397.2 147 393 143 387.8C139 382.6 137 376.133 137 368.4C137 362 138.667 355.933 142 350.2C145.467 344.467 149.733 339.667 154.8 335.8C152.133 333.267 150.067 330.333 148.6 327C147.133 323.667 146.4 319.733 146.4 315.2ZM157 367.6C157 371.867 158.333 375.467 161 378.4C163.667 381.2 167.067 383.667 171.2 385.8C175.467 387.8 180.133 389.733 185.2 391.6C190.4 393.333 195.4 395.267 200.2 397.4C201.933 396.6 203.667 395.467 205.4 394C207.267 392.533 208.867 390.933 210.2 389.2C211.667 387.333 212.8 385.333 213.6 383.2C214.533 380.933 215 378.667 215 376.4C215 372.133 213.667 368.6 211 365.8C208.333 363 204.867 360.533 200.6 358.4C196.467 356.267 191.8 354.333 186.6 352.6C181.533 350.867 176.533 348.867 171.6 346.6C169.867 347.533 168.133 348.733 166.4 350.2C164.667 351.533 163.067 353.133 161.6 355C160.267 356.867 159.133 358.867 158.2 361C157.4 363.133 157 365.333 157 367.6Z" fill="url(#paint0_linear)"/>
<path d="M214.4 169.2C214.4 164.133 215.467 159.333 217.6 154.8C219.733 150.267 222.667 146.333 226.4 143C230.267 139.533 234.733 136.867 239.8 135C245 133 250.667 132 256.8 132C261.2 132 265.267 132.467 269 133.4C272.867 134.2 276.333 135.333 279.4 136.8C282.6 138.133 285.4 139.6 287.8 141.2C290.333 142.8 292.533 144.4 294.4 146L282.6 160.6C275 154.2 266.667 151 257.6 151C254.667 151 251.8 151.4 249 152.2C246.333 152.867 243.867 153.933 241.6 155.4C239.467 156.867 237.733 158.733 236.4 161C235.067 163.133 234.4 165.667 234.4 168.6C234.4 172.467 235.933 175.6 239 178C242.067 180.4 245.933 182.6 250.6 184.6C255.267 186.6 260.4 188.6 266 190.6C271.6 192.467 276.933 194.8 282 197.6C288 200.8 293 205 297 210.2C301 215.4 303 221.867 303 229.6C303 236 301.267 242.133 297.8 248C294.467 253.733 290.267 258.467 285.2 262.2C287.733 264.867 289.733 267.867 291.2 271.2C292.8 274.533 293.6 278.4 293.6 282.8C293.6 287.867 292.533 292.667 290.4 297.2C288.267 301.733 285.267 305.667 281.4 309C277.667 312.467 273.2 315.133 268 317C262.933 319 257.333 320 251.2 320C246.8 320 242.667 319.533 238.8 318.6C235.067 317.8 231.6 316.667 228.4 315.2C225.333 313.867 222.533 312.4 220 310.8C217.6 309.2 215.467 307.6 213.6 306L225.4 291.4C233 297.8 241.333 301 250.4 301C253.333 301 256.133 300.6 258.8 299.8C261.6 299.133 264.067 298.067 266.2 296.6C268.467 295.133 270.267 293.267 271.6 291C272.933 288.867 273.6 286.333 273.6 283.4C273.6 279.667 272.067 276.533 269 274C265.933 271.6 262.067 269.4 257.4 267.4C252.733 265.4 247.6 263.467 242 261.6C236.4 259.6 231.067 257.2 226 254.4C220 251.2 215 247 211 241.8C207 236.6 205 230.133 205 222.4C205 216 206.667 209.933 210 204.2C213.467 198.467 217.733 193.667 222.8 189.8C220.133 187.267 218.067 184.333 216.6 181C215.133 177.667 214.4 173.733 214.4 169.2ZM225 221.6C225 225.867 226.333 229.467 229 232.4C231.667 235.2 235.067 237.667 239.2 239.8C243.467 241.8 248.133 243.733 253.2 245.6C258.4 247.333 263.4 249.267 268.2 251.4C269.933 250.6 271.667 249.467 273.4 248C275.267 246.533 276.867 244.933 278.2 243.2C279.667 241.333 280.8 239.333 281.6 237.2C282.533 234.933 283 232.667 283 230.4C283 226.133 281.667 222.6 279 219.8C276.333 217 272.867 214.533 268.6 212.4C264.467 210.267 259.8 208.333 254.6 206.6C249.533 204.867 244.533 202.867 239.6 200.6C237.867 201.533 236.133 202.733 234.4 204.2C232.667 205.533 231.067 207.133 229.6 209C228.267 210.867 227.133 212.867 226.2 215C225.4 217.133 225 219.333 225 221.6Z" fill="#F0EDFF"/>
<path d="M9.4 608.2C9.4 603.133 10.4667 598.333 12.6 593.8C14.7333 589.267 17.6667 585.333 21.4 582C25.2667 578.533 29.7333 575.867 34.8 574C40 572 45.6667 571 51.8 571C56.2 571 60.2667 571.467 64 572.4C67.8667 573.2 71.3333 574.333 74.4 575.8C77.6 577.133 80.4 578.6 82.8 580.2C85.3333 581.8 87.5333 583.4 89.4 585L77.6 599.6C70 593.2 61.6667 590 52.6 590C49.6667 590 46.8 590.4 44 591.2C41.3333 591.867 38.8667 592.933 36.6 594.4C34.4667 595.867 32.7333 597.733 31.4 600C30.0667 602.133 29.4 604.667 29.4 607.6C29.4 611.467 30.9333 614.6 34 617C37.0667 619.4 40.9333 621.6 45.6 623.6C50.2667 625.6 55.4 627.6 61 629.6C66.6 631.467 71.9333 633.8 77 636.6C83 639.8 88 644 92 649.2C96 654.4 98 660.867 98 668.6C98 675 96.2667 681.133 92.8 687C89.4667 692.733 85.2667 697.467 80.2 701.2C82.7333 703.867 84.7333 706.867 86.2 710.2C87.8 713.533 88.6 717.4 88.6 721.8C88.6 726.867 87.5333 731.667 85.4 736.2C83.2667 740.733 80.2667 744.667 76.4 748C72.6667 751.467 68.2 754.133 63 756C57.9333 758 52.3333 759 46.2 759C41.8 759 37.6667 758.533 33.8 757.6C30.0667 756.8 26.6 755.667 23.4 754.2C20.3333 752.867 17.5333 751.4 15 749.8C12.6 748.2 10.4667 746.6 8.6 745L20.4 730.4C28 736.8 36.3333 740 45.4 740C48.3333 740 51.1333 739.6 53.8 738.8C56.6 738.133 59.0667 737.067 61.2 735.6C63.4667 734.133 65.2667 732.267 66.6 730C67.9333 727.867 68.6 725.333 68.6 722.4C68.6 718.667 67.0667 715.533 64 713C60.9333 710.6 57.0667 708.4 52.4 706.4C47.7333 704.4 42.6 702.467 37 700.6C31.4 698.6 26.0667 696.2 21 693.4C15 690.2 10 686 6 680.8C2 675.6 3.57628e-07 669.133 3.57628e-07 661.4C3.57628e-07 655 1.66667 648.933 5 643.2C8.46667 637.467 12.7333 632.667 17.8 628.8C15.1333 626.267 13.0667 623.333 11.6 620C10.1333 616.667 9.4 612.733 9.4 608.2ZM20 660.6C20 664.867 21.3333 668.467 24 671.4C26.6667 674.2 30.0667 676.667 34.2 678.8C38.4667 680.8 43.1333 682.733 48.2 684.6C53.4 686.333 58.4 688.267 63.2 690.4C64.9333 689.6 66.6667 688.467 68.4 687C70.2667 685.533 71.8667 683.933 73.2 682.2C74.6667 680.333 75.8 678.333 76.6 676.2C77.5333 673.933 78 671.667 78 669.4C78 665.133 76.6667 661.6 74 658.8C71.3333 656 67.8667 653.533 63.6 651.4C59.4667 649.267 54.8 647.333 49.6 645.6C44.5333 643.867 39.5333 641.867 34.6 639.6C32.8667 640.533 31.1333 641.733 29.4 643.2C27.6667 644.533 26.0667 646.133 24.6 648C23.2667 649.867 22.1333 651.867 21.2 654C20.4 656.133 20 658.333 20 660.6Z" fill="#F0EDFF"/>
<path d="M282.4 22.2C282.4 17.1333 283.467 12.3333 285.6 7.8C287.733 3.26666 290.667 -0.666676 294.4 -4.00001C298.267 -7.46668 302.733 -10.1333 307.8 -12C313 -14 318.667 -15 324.8 -15C329.2 -15 333.267 -14.5333 337 -13.6C340.867 -12.8 344.333 -11.6667 347.4 -10.2C350.6 -8.86668 353.4 -7.40001 355.8 -5.80001C358.333 -4.2 360.533 -2.6 362.4 -1.00001L350.6 13.6C343 7.2 334.667 4 325.6 4C322.667 4 319.8 4.4 317 5.19999C314.333 5.86666 311.867 6.93333 309.6 8.39999C307.467 9.86666 305.733 11.7333 304.4 14C303.067 16.1333 302.4 18.6667 302.4 21.6C302.4 25.4667 303.933 28.6 307 31C310.067 33.4 313.933 35.6 318.6 37.6C323.267 39.6 328.4 41.6 334 43.6C339.6 45.4667 344.933 47.8 350 50.6C356 53.8 361 58 365 63.2C369 68.4 371 74.8667 371 82.6C371 89 369.267 95.1333 365.8 101C362.467 106.733 358.267 111.467 353.2 115.2C355.733 117.867 357.733 120.867 359.2 124.2C360.8 127.533 361.6 131.4 361.6 135.8C361.6 140.867 360.533 145.667 358.4 150.2C356.267 154.733 353.267 158.667 349.4 162C345.667 165.467 341.2 168.133 336 170C330.933 172 325.333 173 319.2 173C314.8 173 310.667 172.533 306.8 171.6C303.067 170.8 299.6 169.667 296.4 168.2C293.333 166.867 290.533 165.4 288 163.8C285.6 162.2 283.467 160.6 281.6 159L293.4 144.4C301 150.8 309.333 154 318.4 154C321.333 154 324.133 153.6 326.8 152.8C329.6 152.133 332.067 151.067 334.2 149.6C336.467 148.133 338.267 146.267 339.6 144C340.933 141.867 341.6 139.333 341.6 136.4C341.6 132.667 340.067 129.533 337 127C333.933 124.6 330.067 122.4 325.4 120.4C320.733 118.4 315.6 116.467 310 114.6C304.4 112.6 299.067 110.2 294 107.4C288 104.2 283 100 279 94.8C275 89.6 273 83.1333 273 75.4C273 69 274.667 62.9333 278 57.2C281.467 51.4667 285.733 46.6667 290.8 42.8C288.133 40.2667 286.067 37.3333 284.6 34C283.133 30.6667 282.4 26.7333 282.4 22.2ZM293 74.6C293 78.8667 294.333 82.4667 297 85.4C299.667 88.2 303.067 90.6667 307.2 92.8C311.467 94.8 316.133 96.7333 321.2 98.6C326.4 100.333 331.4 102.267 336.2 104.4C337.933 103.6 339.667 102.467 341.4 101C343.267 99.5333 344.867 97.9333 346.2 96.2C347.667 94.3333 348.8 92.3333 349.6 90.2C350.533 87.9333 351 85.6667 351 83.4C351 79.1333 349.667 75.6 347 72.8C344.333 70 340.867 67.5333 336.6 65.4C332.467 63.2667 327.8 61.3333 322.6 59.6C317.533 57.8667 312.533 55.8667 307.6 53.6C305.867 54.5333 304.133 55.7333 302.4 57.2C300.667 58.5333 299.067 60.1333 297.6 62C296.267 63.8667 295.133 65.8667 294.2 68C293.4 70.1333 293 72.3333 293 74.6Z" fill="#F0EDFF"/>
<path d="M77.4 461.2C77.4 456.133 78.4667 451.333 80.6 446.8C82.7333 442.267 85.6667 438.333 89.4 435C93.2667 431.533 97.7333 428.867 102.8 427C108 425 113.667 424 119.8 424C124.2 424 128.267 424.467 132 425.4C135.867 426.2 139.333 427.333 142.4 428.8C145.6 430.133 148.4 431.6 150.8 433.2C153.333 434.8 155.533 436.4 157.4 438L145.6 452.6C138 446.2 129.667 443 120.6 443C117.667 443 114.8 443.4 112 444.2C109.333 444.867 106.867 445.933 104.6 447.4C102.467 448.867 100.733 450.733 99.4 453C98.0667 455.133 97.4 457.667 97.4 460.6C97.4 464.467 98.9333 467.6 102 470C105.067 472.4 108.933 474.6 113.6 476.6C118.267 478.6 123.4 480.6 129 482.6C134.6 484.467 139.933 486.8 145 489.6C151 492.8 156 497 160 502.2C164 507.4 166 513.867 166 521.6C166 528 164.267 534.133 160.8 540C157.467 545.733 153.267 550.467 148.2 554.2C150.733 556.867 152.733 559.867 154.2 563.2C155.8 566.533 156.6 570.4 156.6 574.8C156.6 579.867 155.533 584.667 153.4 589.2C151.267 593.733 148.267 597.667 144.4 601C140.667 604.467 136.2 607.133 131 609C125.933 611 120.333 612 114.2 612C109.8 612 105.667 611.533 101.8 610.6C98.0667 609.8 94.6 608.667 91.4 607.2C88.3333 605.867 85.5333 604.4 83 602.8C80.6 601.2 78.4667 599.6 76.6 598L88.4 583.4C96 589.8 104.333 593 113.4 593C116.333 593 119.133 592.6 121.8 591.8C124.6 591.133 127.067 590.067 129.2 588.6C131.467 587.133 133.267 585.267 134.6 583C135.933 580.867 136.6 578.333 136.6 575.4C136.6 571.667 135.067 568.533 132 566C128.933 563.6 125.067 561.4 120.4 559.4C115.733 557.4 110.6 555.467 105 553.6C99.4 551.6 94.0667 549.2 89 546.4C83 543.2 78 539 74 533.8C70 528.6 68 522.133 68 514.4C68 508 69.6667 501.933 73 496.2C76.4667 490.467 80.7333 485.667 85.8 481.8C83.1333 479.267 81.0667 476.333 79.6 473C78.1333 469.667 77.4 465.733 77.4 461.2ZM88 513.6C88 517.867 89.3333 521.467 92 524.4C94.6667 527.2 98.0667 529.667 102.2 531.8C106.467 533.8 111.133 535.733 116.2 537.6C121.4 539.333 126.4 541.267 131.2 543.4C132.933 542.6 134.667 541.467 136.4 540C138.267 538.533 139.867 536.933 141.2 535.2C142.667 533.333 143.8 531.333 144.6 529.2C145.533 526.933 146 524.667 146 522.4C146 518.133 144.667 514.6 142 511.8C139.333 509 135.867 506.533 131.6 504.4C127.467 502.267 122.8 500.333 117.6 498.6C112.533 496.867 107.533 494.867 102.6 492.6C100.867 493.533 99.1333 494.733 97.4 496.2C95.6667 497.533 94.0667 499.133 92.6 501C91.2667 502.867 90.1333 504.867 89.2 507C88.4 509.133 88 511.333 88 513.6Z" fill="#F0EDFF"/>
</g>
<defs>
<linearGradient id="paint0_linear" x1="245" y1="266.5" x2="128" y2="470" gradientUnits="userSpaceOnUse">
<stop stop-color="#FECB47"/>
<stop offset="0.208333" stop-color="#FE4747"/>
<stop offset="0.40625" stop-color="#CE47FE"/>
<stop offset="0.614583" stop-color="#6547FE"/>
<stop offset="0.8125" stop-color="#47FEDD"/>
<stop offset="1" stop-color="#82FE47"/>
</linearGradient>
</defs>
</svg>
